<svg version="1.1" xmlns="http://www.w3.org/2000/svg" xmlns:xlink="http://www.w3.org/1999/xlink">
  <defs>
    <!--rainy-->
    <svg xmlns="http://www.w3.org/2000/svg" version="1.1" viewbox="0 0 64 64" id="icon-rainy">
      <defs>
        <filter id="blur" width="200%" height="200%">
          <feGaussianBlur in="SourceAlpha" stdDeviation="3" />
          <feOffset dx="0" dy="4" result="offsetblur" />
          <feComponentTransfer>
            <feFuncA type="linear" slope="0.05" />
          </feComponentTransfer>
          <feMerge>
            <feMergeNode />
            <feMergeNode in="SourceGraphic" />
          </feMerge>
        </filter>
      </defs>
      <g filter="url(#blur)" id="rainy-1">
        <g transform="translate(20,10)">
          <g transform="translate(0,16), scale(1.2)">
            <g class="am-weather-sun">
              <g>
                <line
                  fill="none"
                  stroke="orange"
                  stroke-linecap="round"
                  stroke-width="2"
                  transform="translate(0,9)"
                  x1="0"
                  x2="0"
                  y1="0"
                  y2="3"
                />
              </g>
              <g transform="rotate(45)">
                <line
                  fill="none"
                  stroke="white"
                  stroke-linecap="round"
                  stroke-width="2"
                  transform="translate(0,9)"
                  x1="0"
                  x2="0"
                  y1="0"
                  y2="3"
                />
              </g>
              <g transform="rotate(90)">
                <line
                  fill="none"
                  stroke="white"
                  stroke-linecap="round"
                  stroke-width="2"
                  transform="translate(0,9)"
                  x1="0"
                  x2="0"
                  y1="0"
                  y2="3"
                />
              </g>
              <g transform="rotate(135)">
                <line
                  fill="none"
                  stroke="white"
                  stroke-linecap="round"
                  stroke-width="2"
                  transform="translate(0,9)"
                  x1="0"
                  x2="0"
                  y1="0"
                  y2="3"
                />
              </g>
              <g transform="rotate(180)">
                <line
                  fill="none"
                  stroke="white"
                  stroke-linecap="round"
                  stroke-width="2"
                  transform="translate(0,9)"
                  x1="0"
                  x2="0"
                  y1="0"
                  y2="3"
                />
              </g>
              <g transform="rotate(225)">
                <line
                  fill="none"
                  stroke="white"
                  stroke-linecap="round"
                  stroke-width="2"
                  transform="translate(0,9)"
                  x1="0"
                  x2="0"
                  y1="0"
                  y2="3"
                />
              </g>
              <g transform="rotate(270)">
                <line
                  fill="none"
                  stroke="white"
                  stroke-linecap="round"
                  stroke-width="2"
                  transform="translate(0,9)"
                  x1="0"
                  x2="0"
                  y1="0"
                  y2="3"
                />
              </g>
              <g transform="rotate(315)">
                <line
                  fill="none"
                  stroke="white"
                  stroke-linecap="round"
                  stroke-width="2"
                  transform="translate(0,9)"
                  x1="0"
                  x2="0"
                  y1="0"
                  y2="3"
                />
              </g>
            </g>
            <circle
              cx="0"
              cy="0"
              fill="white"
              r="5"
              stroke="white"
              stroke-width="2"
            />
          </g>
          <g>
            <path
              d="M47.7,35.4c0-4.6-3.7-8.2-8.2-8.2c-1,0-1.9,0.2-2.8,0.5c-0.3-3.4-3.1-6.2-6.6-6.2c-3.7,0-6.7,3-6.7,6.7c0,0.8,0.2,1.6,0.4,2.3    c-0.3-0.1-0.7-0.1-1-0.1c-3.7,0-6.7,3-6.7,6.7c0,3.6,2.9,6.6,6.5,6.7l17.2,0C44.2,43.3,47.7,39.8,47.7,35.4z"
              
              stroke="#FFFFFF"
              stroke-linejoin="round"
              stroke-width="1.5"
              transform="translate(-15,-5), scale(0.85)"
            />
          </g>
        </g>
        <g transform="translate(34,46), rotate(10)">
          <line
            class="am-weather-rain-1"
            fill="none"
            stroke="#fff"
            stroke-dasharray="4,7"
            stroke-linecap="round"
            stroke-width="2"
            transform="translate(-6,1)"
            x1="0"
            x2="0"
            y1="0"
            y2="8"
          />
          <line
            class="am-weather-rain-2"
            fill="none"
            stroke="#fff"
            stroke-dasharray="4,7"
            stroke-linecap="round"
            stroke-width="2"
            transform="translate(0,-1)"
            x1="0"
            x2="0"
            y1="0"
            y2="8"
          />
        </g>
      </g>
    </svg>
    <!--sunny-->
    <svg xmlns="http://www.w3.org/2000/svg" version="1.1" viewbox="0 0 64 64" id="icon-sunny">
    <defs>
        <filter id="blur" width="200%" height="200%">
            <feGaussianBlur in="SourceAlpha" stdDeviation="3"/>
            <feOffset dx="0" dy="4" result="offsetblur"/>
            <feComponentTransfer>
                <feFuncA type="linear" slope="0.05"/>
            </feComponentTransfer>
            <feMerge> 
                <feMergeNode/>
                <feMergeNode in="SourceGraphic"/> 
            </feMerge>
        </filter>
    </defs>
    <g filter="url(#blur)" id="day">
        <g transform="translate(32,32)">
            <g class="am-weather-sun am-weather-sun-shiny am-weather-easing-ease-in-out">
                <g>
                    <line fill="none" stroke="white" stroke-linecap="round" stroke-width="2" transform="translate(0,9)" x1="0" x2="0" y1="0" y2="3"/>
                </g>
                <g transform="rotate(45)">
                    <line fill="none" stroke="white" stroke-linecap="round" stroke-width="2" transform="translate(0,9)" x1="0" x2="0" y1="0" y2="3"/>
                </g>
                <g transform="rotate(90)">
                    <line fill="none" stroke="white" stroke-linecap="round" stroke-width="2" transform="translate(0,9)" x1="0" x2="0" y1="0" y2="3"/>
                </g>
                <g transform="rotate(135)">
                    <line fill="none" stroke="white" stroke-linecap="round" stroke-width="2" transform="translate(0,9)" x1="0" x2="0" y1="0" y2="3"/>
                </g>
                <g transform="rotate(180)">
                    <line fill="none" stroke="white" stroke-linecap="round" stroke-width="2" transform="translate(0,9)" x1="0" x2="0" y1="0" y2="3"/>
                </g>
                <g transform="rotate(225)">
                    <line fill="none" stroke="white" stroke-linecap="round" stroke-width="2" transform="translate(0,9)" x1="0" x2="0" y1="0" y2="3"/>
                </g>
                <g transform="rotate(270)">
                    <line fill="none" stroke="white" stroke-linecap="round" stroke-width="2" transform="translate(0,9)" x1="0" x2="0" y1="0" y2="3"/>
                </g>
                <g transform="rotate(315)">
                    <line fill="none" stroke="white" stroke-linecap="round" stroke-width="2" transform="translate(0,9)" x1="0" x2="0" y1="0" y2="3"/>
                </g>
            </g>
            <circle cx="0" cy="0" fill="white" r="5" stroke="white" stroke-width="2"/>
        </g>
    </g>
    </svg>
    
    <!-- night -->
    <svg xmlns="http://www.w3.org/2000/svg" version="1.1" viewbox="0 0 64 64" id="icon-night">
    <defs>
        <filter id="blur" width="200%" height="200%">
            <feGaussianBlur in="SourceAlpha" stdDeviation="3"/>
            <feOffset dx="0" dy="4" result="offsetblur"/>
            <feComponentTransfer>
                <feFuncA type="linear" slope="0.05"/>
            </feComponentTransfer>
            <feMerge> 
                <feMergeNode/>
                <feMergeNode in="SourceGraphic"/> 
            </feMerge>
        </filter>
    </defs>
    <g filter="url(#blur)" id="night">
        <g transform="translate(20,20)">
            <g class="am-weather-moon-star-1">
                <polygon fill="#fff" points="3.3,1.5 4,2.7 5.2,3.3 4,4 3.3,5.2 2.7,4 1.5,3.3 2.7,2.7" stroke="none" stroke-miterlimit="10"/>
            </g>
            <g class="am-weather-moon-star-2">
                <polygon fill="#fff" points="3.3,1.5 4,2.7 5.2,3.3 4,4 3.3,5.2 2.7,4 1.5,3.3 2.7,2.7" stroke="none" stroke-miterlimit="10" transform="translate(20,10)"/>
            </g>
            <g class="am-weather-moon">
                <path d="M14.5,13.2c0-3.7,2-6.9,5-8.7   c-1.5-0.9-3.2-1.3-5-1.3c-5.5,0-10,4.5-10,10s4.5,10,10,10c1.8,0,3.5-0.5,5-1.3C16.5,20.2,14.5,16.9,14.5,13.2z" fill="#fff" stroke="#fff" stroke-linejoin="round" stroke-width="2"/>
            </g>
        </g>
    </g>
</svg>
    <!--checkbox-->
    <svg
            
            viewBox="0 0 24 24"
            version="1.1"
            xmlns="http://www.w3.org/2000/svg"
            id="icon-checkbox"
          >
            <title>ic_fluent_checkbox_checked_24_regular</title>
            <desc>Created with Sketch.</desc>
            <g
              id="ðŸ”-Product-Icons"
              stroke="none"
              stroke-width="1"
              fill="none"
              fill-rule="evenodd"
            >
              <g
                id="ic_fluent_checkbox_checked_24_regular"
                fill="#2b2b2b"
                fill-rule="nonzero"
              >
                <path
                  d="M18.25,3 C19.7687831,3 21,4.23121694 21,5.75 L21,18.25 C21,19.7687831 19.7687831,21 18.25,21 L5.75,21 C4.23121694,21 3,19.7687831 3,18.25 L3,5.75 C3,4.23121694 4.23121694,3 5.75,3 L18.25,3 Z M18.25,4.5 L5.75,4.5 C5.05964406,4.5 4.5,5.05964406 4.5,5.75 L4.5,18.25 C4.5,18.9403559 5.05964406,19.5 5.75,19.5 L18.25,19.5 C18.9403559,19.5 19.5,18.9403559 19.5,18.25 L19.5,5.75 C19.5,5.05964406 18.9403559,4.5 18.25,4.5 Z M10,14.4393398 L16.4696699,7.96966991 C16.7625631,7.6767767 17.2374369,7.6767767 17.5303301,7.96966991 C17.7965966,8.23593648 17.8208027,8.65260016 17.6029482,8.94621165 L17.5303301,9.03033009 L10.5303301,16.0303301 C10.2640635,16.2965966 9.84739984,16.3208027 9.55378835,16.1029482 L9.46966991,16.0303301 L6.46966991,13.0303301 C6.1767767,12.7374369 6.1767767,12.2625631 6.46966991,11.9696699 C6.73593648,11.7034034 7.15260016,11.6791973 7.44621165,11.8970518 L7.53033009,11.9696699 L10,14.4393398 L16.4696699,7.96966991 L10,14.4393398 Z"
                  id="ðŸŽ¨Color"
                ></path>
              </g>
            </g>
          </svg>


  </defs>
</svg>